<svg width="14" height="14" viewBox="0 0 14 14" fill="none" xmlns="http://www.w3.org/2000/svg">
<path fill-rule="evenodd" clip-rule="evenodd" d="M2.56066 1.27723C1.97487 0.691444 1.02513 0.691444 0.43934 1.27723C-0.146447 1.86302 -0.146447 2.81276 0.43934 3.39855L4.38007 7.33929L0.440278 11.2791C-0.145509 11.8649 -0.145508 12.8146 0.440278 13.4004C1.02606 13.9862 1.97581 13.9862 2.5616 13.4004L6.5014 9.46061L10.4412 13.4004C11.027 13.9862 11.9767 13.9862 12.5625 13.4004C13.1483 12.8146 13.1483 11.8649 12.5625 11.2791L8.62272 7.33929L12.5635 3.39855C13.1492 2.81276 13.1492 1.86302 12.5635 1.27723C11.9777 0.691444 11.0279 0.691444 10.4421 1.27723L6.5014 5.21797L2.56066 1.27723Z" fill="#FF0001" fill-opacity="0.8"/>
</svg>
