<svg width="150" height="62" viewBox="0 0 150 62" fill="none" xmlns="http://www.w3.org/2000/svg">
<g clip-path="url(#clip0)">
<path d="M67.5286 47.1079H59.7994V47.9158C62.217 47.9158 62.6057 48.4263 62.6057 51.4471V56.893C62.6057 59.9135 62.2174 60.4667 59.7994 60.4667C57.9431 60.2116 56.6905 59.2328 54.9634 57.3609L52.9773 55.2339C55.6542 54.7653 57.0788 53.1066 57.0788 51.2343C57.0788 48.8949 55.0499 47.1079 51.2498 47.1079H43.6504V47.9158C46.068 47.9158 46.4567 48.4263 46.4567 51.4471V56.893C46.4567 59.9135 46.068 60.4667 43.6504 60.4667V61.2749H52.2428V60.4667C49.8252 60.4667 49.4365 59.9135 49.4365 56.893V55.3618H50.1703L54.9634 61.2749H67.5286C73.7031 61.2749 76.3803 58.042 76.3803 54.1699C76.3803 50.2986 73.7034 47.1079 67.5286 47.1079ZM49.4369 54.042V48.3844H51.2069C53.1497 48.3844 54.0136 49.7031 54.0136 51.2347C54.0136 52.724 53.1497 54.0424 51.2069 54.0424H49.4369V54.042ZM67.6584 59.9562H67.3559C65.8018 59.9562 65.5858 59.5735 65.5858 57.6164V48.3844C65.5858 48.3844 67.4857 48.3844 67.6584 48.3844C72.149 48.3844 72.9689 51.6173 72.9689 54.1276C72.9689 56.7225 72.1486 59.9562 67.6584 59.9562Z" fill="white"/>
<path d="M19.6033 55.6189L22.5827 46.9394C23.4466 44.4294 23.0579 43.7064 20.2945 43.7064V42.8552H28.4121V43.7064C25.6919 43.7064 25.0443 44.3445 23.9648 47.4503L19.0419 62.0002H18.4808L14.076 48.6837L9.58584 62.0002H9.02442L4.23169 47.4503C3.1954 44.3445 2.50454 43.7064 0 43.7064V42.8552H9.58584V43.7064C7.03802 43.7064 6.3468 44.3019 7.25401 46.9394L10.1469 55.6189L14.508 42.8552H15.3287L19.6033 55.6189Z" fill="white"/>
<path d="M34.2817 61.8262C29.5323 61.8262 25.646 58.3804 25.646 54.168C25.646 49.9989 29.5326 46.5525 34.2817 46.5525C39.0315 46.5525 42.9174 49.9989 42.9174 54.168C42.9174 58.3804 39.0315 61.8262 34.2817 61.8262ZM34.2817 47.8723C30.3097 47.8723 28.9276 51.403 28.9276 54.1684C28.9276 56.9768 30.3097 60.4651 34.2817 60.4651C38.2978 60.4651 39.6795 56.9768 39.6795 54.1684C39.6795 51.403 38.2978 47.8723 34.2817 47.8723Z" fill="white"/>
<path d="M87.0455 60.4242V61.2751H77.1575V60.4242C80.0507 60.4242 80.5688 59.7012 80.5688 55.4462V48.6396C80.5688 44.3846 80.0507 43.7043 77.1575 43.7043V42.853H86.0953C90.5427 42.853 93.0046 45.1079 93.0046 48.1291C93.0046 51.0647 90.5427 53.3618 86.0953 53.3618H83.6341V55.4458C83.6341 59.7012 84.1522 60.4242 87.0455 60.4242ZM86.0953 44.3846H83.6341V51.7877H86.0953C88.5137 51.7877 89.6362 50.1286 89.6362 48.1291C89.6362 46.087 88.5137 44.3846 86.0953 44.3846Z" fill="white"/>
<path d="M122.669 57.276L122.453 58.0416C122.064 59.4456 121.589 59.9562 118.523 59.9562H117.918C115.673 59.9562 115.285 59.4456 115.285 56.4252V54.4683C118.653 54.4683 118.912 54.7657 118.912 56.9783H119.732V50.6389H118.912C118.912 52.8512 118.653 53.1489 115.285 53.1489V48.3844H117.659C120.725 48.3844 121.2 48.8949 121.589 50.2989L121.805 51.1068H122.495L122.194 47.1079H109.499V47.9158C111.916 47.9158 112.305 48.4263 112.305 51.4471V56.893C112.305 59.6563 111.975 60.3524 110.069 60.4516C108.257 60.179 107.013 59.2053 105.311 57.3609L103.325 55.2339C106.002 54.7653 107.427 53.1066 107.427 51.2343C107.427 48.8949 105.397 47.1079 101.598 47.1079H93.9983V47.9158C96.4159 47.9158 96.8046 48.4263 96.8046 51.4471V56.893C96.8046 59.9135 96.4163 60.4667 93.9983 60.4667V61.2749H102.591V60.4667C100.173 60.4667 99.7844 59.9135 99.7844 56.893V55.3618H100.519L105.311 61.2749H123.058L123.317 57.2764H122.669V57.276ZM99.784 54.042V48.3844H101.554C103.497 48.3844 104.361 49.7031 104.361 51.2347C104.361 52.724 103.497 54.0424 101.554 54.0424H99.784V54.042Z" fill="white"/>
<path d="M131.434 61.8295C129.706 61.8295 128.195 60.9363 127.547 60.3828C127.331 60.596 126.943 61.234 126.857 61.8295H126.036V55.959H126.9C127.245 58.7667 129.231 60.4258 131.779 60.4258C133.161 60.4258 134.284 59.6602 134.284 58.3841C134.284 57.2781 133.29 56.4269 131.52 55.6187L129.059 54.4701C127.331 53.6612 126.036 52.2571 126.036 50.3856C126.036 48.3435 127.979 46.5995 130.657 46.5995C132.081 46.5995 133.29 47.11 134.025 47.7054C134.24 47.5353 134.456 47.067 134.586 46.5562H135.406V51.5768H134.499C134.197 49.577 133.075 47.9179 130.786 47.9179C129.577 47.9179 128.454 48.5986 128.454 49.6626C128.454 50.7686 129.361 51.364 131.434 52.3001L133.808 53.4487C135.881 54.4271 136.701 56.002 136.701 57.2781C136.701 59.9579 134.326 61.8295 131.434 61.8295Z" fill="white"/>
<path d="M144.733 61.8295C143.005 61.8295 141.494 60.9363 140.846 60.3828C140.63 60.596 140.242 61.234 140.156 61.8295H139.335V55.959H140.199C140.544 58.7667 142.53 60.4258 145.078 60.4258C146.46 60.4258 147.583 59.6602 147.583 58.3841C147.583 57.2781 146.59 56.4269 144.819 55.6187L142.358 54.4701C140.63 53.6612 139.335 52.2571 139.335 50.3856C139.335 48.3435 141.278 46.5995 143.955 46.5995C145.38 46.5995 146.589 47.11 147.323 47.7054C147.539 47.5353 147.755 47.067 147.884 46.5562H148.705V51.5768H147.798C147.496 49.577 146.373 47.9179 144.085 47.9179C142.876 47.9179 141.753 48.5986 141.753 49.6626C141.753 50.7686 142.66 51.364 144.733 52.3001L147.107 53.4487C149.18 54.4271 150 56.002 150 57.2781C150 59.9579 147.625 61.8295 144.733 61.8295Z" fill="white"/>
<path d="M58.5702 19.1467C58.5702 25.6483 62.405 31.2669 67.9658 33.9295L60.0135 12.4619C59.0885 14.5047 58.5702 16.7654 58.5702 19.1467Z" fill="white"/>
<path d="M86.4948 18.317C86.4948 16.287 85.7547 14.8812 85.12 13.787C84.2749 12.434 83.4828 11.2882 83.4828 9.93515C83.4828 8.42524 84.6451 7.01972 86.2822 7.01972C86.3561 7.01972 86.4263 7.02878 86.4983 7.03284C83.5323 4.35557 79.5808 2.72095 75.2406 2.72095C69.4166 2.72095 64.2926 5.66514 61.3118 10.1246C61.7029 10.1361 62.0715 10.1442 62.3846 10.1442C64.1283 10.1442 66.8275 9.93578 66.8275 9.93578C67.7262 9.88358 67.8321 11.1841 66.9344 11.2888C66.9344 11.2888 66.0313 11.3935 65.0263 11.4454L71.0972 29.2371L74.7455 18.4564L72.1481 11.4448C71.2504 11.3929 70.4 11.2882 70.4 11.2882C69.5016 11.2363 69.6069 9.88296 70.5053 9.93515C70.5053 9.93515 73.2584 10.1436 74.8965 10.1436C76.6399 10.1436 79.3394 9.93515 79.3394 9.93515C80.2387 9.88296 80.3443 11.1835 79.4463 11.2882C79.4463 11.2882 78.5413 11.3929 77.5382 11.4448L83.5628 29.1018L85.2256 23.6269C85.9463 21.355 86.4948 19.7232 86.4948 18.317Z" fill="white"/>
<path d="M75.5333 20.5825L70.5315 34.9031C72.0249 35.3357 73.6043 35.5723 75.2409 35.5723C77.1822 35.5723 79.0439 35.2416 80.7769 34.6412C80.7322 34.5709 80.6915 34.4962 80.6582 34.4149L75.5333 20.5825Z" fill="white"/>
<path d="M89.8697 11.2654C89.9414 11.7886 89.982 12.3502 89.982 12.9544C89.982 14.6212 89.6661 16.4949 88.7144 18.8378L83.6222 33.344C88.5783 30.4964 91.9119 25.2059 91.9119 19.1462C91.9123 16.2905 91.1719 13.6051 89.8697 11.2654Z" fill="white"/>
<path d="M75.2416 0C64.5265 0 55.8085 8.5891 55.8085 19.1466C55.8085 29.7054 64.5265 38.2942 75.2416 38.2942C85.9565 38.2942 94.6758 29.7054 94.6758 19.1466C94.6755 8.5891 85.9565 0 75.2416 0ZM75.2416 37.4165C65.0178 37.4165 56.6995 29.2206 56.6995 19.1466C56.6995 9.07323 65.0175 0.877944 75.2416 0.877944C85.4651 0.877944 93.7828 9.07323 93.7828 19.1466C93.7828 29.2206 85.4651 37.4165 75.2416 37.4165Z" fill="white"/>
</g>
<defs>
<clipPath id="clip0">
<rect width="150" height="62" fill="white"/>
</clipPath>
</defs>
</svg>
