<svg width="95" height="87" viewBox="0 0 95 87" fill="none" xmlns="http://www.w3.org/2000/svg">
<g clip-path="url(#clip0)">
<path d="M51.2852 15.3287L48.7237 19.7558L39.9637 4.61152L13.0718 51.0957H31.2794C31.2794 53.5407 33.2652 55.5228 35.7149 55.5228H13.0718C11.4873 55.5228 10.0233 54.6786 9.23123 53.3089C8.43912 51.9392 8.4392 50.2518 9.23145 48.8822L36.1233 2.39799C36.9156 1.02817 38.3799 0.184326 39.9646 0.184326C41.5493 0.184326 43.0136 1.02817 43.8059 2.39799L51.2852 15.3287Z" fill="white"/>
<path d="M70.6978 48.8821L53.8467 19.7557L51.2852 15.3286L48.7237 19.7557L31.8745 48.8821C31.0823 50.2517 31.0822 51.9391 31.8743 53.3088C32.6664 54.6785 34.1304 55.5227 35.7149 55.5227H66.8519C68.4367 55.5227 69.9013 54.6794 70.6938 53.3096C71.4864 51.9398 71.4865 50.252 70.6941 48.8821H70.6978ZM35.7149 51.0956L51.2852 24.1827L66.8519 51.0956H35.7149L35.7149 51.0956Z" fill="#4B4B4B"/>
<path d="M82.7455 53.3092C81.9534 54.6787 80.4895 55.5228 78.9052 55.5228H66.8518C69.3014 55.5228 71.2873 53.5407 71.2873 51.0957H78.8959L57.3063 13.7736L53.8466 19.7557L51.2852 15.3286L53.4659 11.5601C54.2582 10.1903 55.7225 9.34644 57.3072 9.34644C58.8919 9.34644 60.3562 10.1903 61.1485 11.5601L82.7455 48.8821C83.5379 50.2519 83.5379 51.9395 82.7455 53.3092Z" fill="#D2D2D2"/>
</g>
<g clip-path="url(#clip1)">
<path fill-rule="evenodd" clip-rule="evenodd" d="M12.7122 70.6665C12.8831 70.8496 13.0027 71.0993 12.9856 71.3657V84.9322C12.9856 85.2152 12.8831 85.4982 12.6781 85.7146C12.5766 85.8173 12.4544 85.8985 12.3191 85.9529C12.1838 86.0073 12.0384 86.0339 11.8921 86.0308C11.7212 86.0308 11.5504 85.9975 11.3795 85.9476C11.2414 85.9011 11.1179 85.8209 11.0207 85.7146L1.9991 74.2787V85.0321C2.00404 85.1638 1.98077 85.295 1.93076 85.4174C1.88076 85.5399 1.80513 85.6508 1.70868 85.7432C1.61224 85.8356 1.49709 85.9074 1.37059 85.9541C1.24408 86.0007 1.10899 86.0212 0.973921 86.0142C0.717626 86.0142 0.461331 85.9143 0.290468 85.7312C0.104592 85.5502 0.000110499 85.3047 0 85.0487L0 71.4489C0 71.1659 0.119604 70.8829 0.341727 70.6832C0.437479 70.588 0.551813 70.5125 0.677994 70.461C0.804174 70.4095 0.939649 70.3832 1.07644 70.3835C1.2473 70.3835 1.43525 70.4168 1.58903 70.4834C1.75989 70.5334 1.89658 70.6499 1.9991 70.7664L10.9694 82.2355V71.3657C10.9645 71.234 10.9878 71.1027 11.0378 70.9803C11.0878 70.8578 11.1634 70.7469 11.2598 70.6545C11.3563 70.5621 11.4714 70.4903 11.5979 70.4436C11.7244 70.397 11.8595 70.3765 11.9946 70.3835C12.2509 70.3835 12.5072 70.4668 12.6781 70.6665H12.7122ZM31.2851 70.6998C31.473 70.9162 31.5926 71.1992 31.5755 71.4655V80.0549C31.5926 81.1535 31.3192 82.2522 30.7725 83.2176C30.2599 84.1498 29.491 84.9155 28.5513 85.4316C27.5944 85.9809 26.5009 86.2639 25.3732 86.2472C24.2626 86.2472 23.152 85.9809 22.161 85.4482C21.2261 84.9302 20.4571 84.1696 19.9397 83.2509C19.3947 82.2765 19.1181 81.1811 19.1367 80.0715V71.4822C19.1367 71.1992 19.2392 70.9162 19.4784 70.7165C19.6918 70.5161 19.9766 70.4041 20.2729 70.4041C20.5693 70.4041 20.8541 70.5161 21.0674 70.7165C21.2725 70.9162 21.3921 71.1826 21.3921 71.4822V80.0383C21.375 80.7707 21.5629 81.4865 21.9388 82.1357C22.2847 82.726 22.7844 83.217 23.3874 83.559C23.9905 83.901 24.6755 84.0818 25.3732 84.0832C25.9175 84.0855 26.4568 83.9822 26.9597 83.7793C27.4625 83.5764 27.9189 83.278 28.3022 82.9015C28.6855 82.525 28.988 82.0779 29.1921 81.5863C29.3962 81.0947 29.4978 80.5685 29.491 80.0383V71.4822C29.491 71.1992 29.5764 70.9162 29.7644 70.6998C29.9694 70.4834 30.2428 70.3669 30.5333 70.3835C30.8237 70.3835 31.0971 70.5001 31.2851 70.6998ZM49.0378 84.3163C49.1685 84.502 49.2344 84.7238 49.2257 84.9488C49.2428 85.2318 49.1232 85.5148 48.9011 85.7146C48.7009 85.8948 48.4389 85.9957 48.1664 85.9975C47.8075 86.0142 47.4658 85.8311 47.2608 85.5481L42.8183 79.7553L38.4442 85.5481C38.3476 85.6916 38.2158 85.8094 38.0606 85.8908C37.9055 85.9722 37.732 86.0146 37.5558 86.0142C37.2824 86.0142 37.0432 85.9143 36.8552 85.7312C36.6843 85.5647 36.5647 85.3317 36.5647 85.0986C36.5647 84.8323 36.6673 84.566 36.8381 84.3662L41.554 78.124L36.821 71.9316C36.6521 71.7308 36.5672 71.4754 36.583 71.2162C36.5988 70.9571 36.7143 70.7132 36.9065 70.5334C37.0675 70.3725 37.2772 70.2663 37.5048 70.2303C37.7325 70.1944 37.9659 70.2306 38.1709 70.3336C38.3353 70.4074 38.4768 70.5222 38.5809 70.6665L42.9892 76.4261L47.3291 70.7165C47.5171 70.4335 47.8417 70.2504 48.2005 70.2171C48.4739 70.2171 48.7473 70.3502 48.9352 70.55C49.1232 70.7165 49.2428 70.9662 49.2599 71.2158C49.2599 71.4655 49.1745 71.6819 49.0207 71.8817L44.2365 78.074L49.0207 84.3163H49.0378ZM65.5261 70.6665C65.7311 70.8496 65.8678 71.1326 65.8507 71.4156C65.8507 71.6986 65.7311 71.9649 65.509 72.148C65.3039 72.3311 65.0135 72.431 64.723 72.4144H60.6565V84.9655C60.6565 85.2485 60.554 85.5148 60.3318 85.7146C60.1007 85.9135 59.803 86.0233 59.4946 86.0233C59.1862 86.0233 58.8885 85.9135 58.6574 85.7146C58.5509 85.6191 58.4657 85.5033 58.4069 85.3745C58.3481 85.2457 58.3171 85.1065 58.3156 84.9655V72.4144H54.2491C53.9586 72.4144 53.6852 72.3311 53.4631 72.1314C53.3572 72.0363 53.2735 71.9203 53.2175 71.7911C53.1615 71.6619 53.1346 71.5225 53.1385 71.3823C53.1385 71.116 53.241 70.8496 53.446 70.6665C53.6682 70.4668 53.9586 70.3669 54.232 70.3835H64.723C65.0135 70.3835 65.3039 70.4668 65.5261 70.6665Z" fill="white"/>
<path fill-rule="evenodd" clip-rule="evenodd" d="M70.5152 85.6311C69.7805 85.2316 69.1483 84.6324 68.7212 83.9166C68.6015 83.7501 68.5332 83.5337 68.5161 83.3173C68.5161 83.0343 68.6357 82.768 68.8578 82.5849C69.0458 82.3852 69.3021 82.2853 69.5755 82.252C69.9855 82.3019 70.3614 82.5017 70.6006 82.8179C71.1132 83.6502 72.0359 84.1496 73.0098 84.1163C73.4029 84.1275 73.7942 84.0616 74.1607 83.9228C74.5272 83.7839 74.8613 83.5747 75.1433 83.3078C75.4254 83.0408 75.6495 82.7214 75.8025 82.3685C75.9555 82.0155 76.0343 81.6363 76.0341 81.2532V71.4653C76.031 71.3212 76.0599 71.1782 76.1189 71.046C76.1779 70.9138 76.2655 70.7957 76.3758 70.6996C76.5979 70.4999 76.8884 70.3833 77.1789 70.3833C77.4864 70.3833 77.7769 70.4832 77.999 70.683C78.1006 70.7838 78.1802 70.9037 78.233 71.0352C78.2859 71.1668 78.3109 71.3075 78.3066 71.4487V81.2699C78.3253 82.1504 78.0963 83.0192 77.6446 83.782C77.1928 84.5449 76.5354 85.1728 75.7436 85.5978C74.9505 86.0374 74.0549 86.2713 73.1424 86.2772C72.23 86.283 71.3312 86.0606 70.5323 85.6311H70.5152ZM86.3201 85.6977C85.4145 85.3648 84.5773 84.8654 83.8596 84.1996C83.7174 84.0928 83.6009 83.9571 83.5182 83.8018C83.4356 83.6465 83.3888 83.4754 83.3812 83.3007C83.3829 83.1622 83.4142 83.0256 83.473 82.8995C83.5319 82.7734 83.617 82.6606 83.7229 82.5683C83.8172 82.4701 83.9309 82.3914 84.0572 82.3371C84.1834 82.2828 84.3196 82.2538 84.4577 82.252C84.7139 82.252 84.9361 82.3352 85.124 82.5017C85.6708 83.0011 86.3201 83.4172 87.0035 83.7168C87.7211 83.9832 88.4729 84.1163 89.2247 84.1163C90.0791 84.133 90.9334 83.9166 91.6681 83.4505C92.2661 83.1176 92.6591 82.5017 92.6591 81.8192C92.6762 81.1034 92.3003 80.4209 91.6681 80.0214C90.7494 79.5015 89.7425 79.1463 88.6951 78.9727C87.1231 78.6398 85.91 78.1404 85.0557 77.4246C84.2014 76.7088 83.7913 75.7101 83.7913 74.445C83.7742 73.6127 84.0134 72.797 84.5089 72.1145C85.0044 71.4487 85.6708 70.916 86.4568 70.5831C88.2291 69.8944 90.1994 69.8648 91.9927 70.4999C92.7548 70.7471 93.4538 71.15 94.0431 71.6817C94.3506 71.9148 94.5557 72.2643 94.5557 72.6306C94.556 72.7638 94.529 72.8958 94.4762 73.0187C94.4233 73.1417 94.3458 73.2531 94.2481 73.3463C94.1555 73.4521 94.0401 73.5367 93.9102 73.5943C93.7803 73.6518 93.639 73.6808 93.4963 73.6793C93.3255 73.6793 93.1204 73.6127 92.9837 73.4962C91.9788 72.6184 90.677 72.1324 89.3273 72.1312C88.4729 72.0812 87.6186 72.2976 86.8839 72.7304C86.6055 72.9113 86.3772 73.1564 86.2193 73.4439C86.0615 73.7314 85.9789 74.0524 85.9789 74.3784C85.9789 74.7044 86.0615 75.0254 86.2193 75.3129C86.3772 75.6004 86.6055 75.8454 86.8839 76.0264C87.7191 76.5061 88.632 76.8439 89.5836 77.0251C90.5916 77.2082 91.5656 77.5245 92.5053 77.9074C93.2229 78.2236 93.838 78.7064 94.2652 79.3389C94.7095 80.0713 94.9145 80.887 94.8803 81.736C94.8974 82.5683 94.6411 83.3673 94.1456 84.0331C93.633 84.7322 92.9154 85.2649 92.0952 85.5978C90.2359 86.2901 88.1863 86.3255 86.303 85.6977H86.3201Z" fill="#4B4B4B"/>
</g>
<defs>
<clipPath id="clip0">
<rect width="74.8485" height="55.6566" fill="white" transform="translate(8.63647)"/>
</clipPath>
<clipPath id="clip1">
<rect width="95" height="16.3131" fill="white" transform="translate(0 70.0505)"/>
</clipPath>
</defs>
</svg>
