<svg width="89" height="86" viewBox="0 0 89 86" fill="none" xmlns="http://www.w3.org/2000/svg">
<g clip-path="url(#clip0)">
<path fill-rule="evenodd" clip-rule="evenodd" d="M3.72779 63.9541V82.0451H10.2373V85.1662H0.261475V63.9541H3.72779ZM22.4724 72.9541V71.045H25.7576V85.167H22.4732V83.2571C22.0306 83.9644 21.4037 84.5202 20.5894 84.9237C19.7759 85.3279 18.9569 85.5297 18.1333 85.5297C17.0676 85.5297 16.0933 85.3334 15.2096 84.9394C14.3482 84.5617 13.5735 84.0097 12.9338 83.3176C12.3 82.6292 11.7996 81.8278 11.4583 80.9547C11.1026 80.0476 10.9232 79.0803 10.9298 78.1052C10.9298 77.1161 11.1054 76.171 11.4575 75.2714C11.7966 74.3923 12.2975 73.5854 12.9338 72.8928C13.5737 72.2012 14.3484 71.6494 15.2096 71.2718C16.0933 70.8778 17.0676 70.6815 18.1333 70.6815C18.9569 70.6815 19.7759 70.8832 20.5894 71.2875C21.4029 71.6918 22.0306 72.2468 22.4732 72.9541H22.4724ZM22.1711 79.833C22.3734 79.28 22.4757 78.6952 22.4732 78.106C22.4732 77.4992 22.3717 76.9238 22.1711 76.379C21.9828 75.8544 21.6966 75.3709 21.3279 74.9542C20.9599 74.5456 20.5139 74.2156 20.0164 73.984C19.5042 73.7422 18.9366 73.6205 18.3144 73.6205C17.6906 73.6205 17.1278 73.7422 16.6258 73.984C16.1345 74.2184 15.694 74.5482 15.3298 74.9542C14.9623 75.3687 14.681 75.8528 14.5023 76.3782C14.3091 76.9332 14.212 77.5173 14.215 78.1052C14.215 78.7112 14.3102 79.2874 14.5015 79.8322C14.692 80.3785 14.9683 80.8527 15.3306 81.257C15.6947 81.6632 16.1351 81.9929 16.6265 82.2272C17.1278 82.4698 17.6906 82.5907 18.3136 82.5907C18.9366 82.5907 19.5042 82.4698 20.0164 82.2272C20.514 81.9958 20.9601 81.6658 21.3279 81.257C21.6966 80.8406 21.9828 80.3573 22.1711 79.833ZM28.3496 85.1662V71.045H37.2706V74.2956H31.634V85.1678H28.3496V85.1662ZM49.1748 72.9541V71.045H52.46V85.167H49.1748V83.2571C48.7329 83.9644 48.1052 84.5202 47.291 84.9237C46.4775 85.3279 45.6593 85.5297 44.8349 85.5297C43.77 85.5297 42.7957 85.3334 41.9119 84.9394C41.0506 84.5617 40.2759 84.0097 39.6362 83.3176C39.0021 82.6292 38.5014 81.8279 38.1599 80.9547C37.8044 80.0475 37.6253 79.0802 37.6321 78.1052C37.6321 77.1161 37.8078 76.171 38.1599 75.2714C38.4988 74.3924 38.9993 73.5855 39.6354 72.8928C40.2755 72.2011 41.0504 71.6493 41.9119 71.2718C42.7957 70.8778 43.77 70.6815 44.8349 70.6815C45.6585 70.6815 46.4775 70.8832 47.291 71.2875C48.1052 71.6918 48.7329 72.2468 49.1748 72.9541ZM48.8734 79.833C49.0755 79.28 49.1776 78.6951 49.1748 78.106C49.1748 77.4992 49.0733 76.9238 48.8734 76.379C48.6851 75.8544 48.399 75.3709 48.0303 74.9542C47.6623 74.5456 47.2162 74.2156 46.7187 73.984C46.2066 73.7422 45.6382 73.6205 45.016 73.6205C44.393 73.6205 43.8301 73.7422 43.3281 73.984C42.8368 74.2184 42.3964 74.5482 42.0321 74.9542C41.6644 75.3686 41.3828 75.8528 41.2038 76.3782C41.011 76.9332 40.9141 77.5173 40.9173 78.1052C40.9173 78.7112 41.0118 79.2874 41.2038 79.8322C41.3943 80.3785 41.6707 80.8527 42.0321 81.257C42.3962 81.6632 42.8367 81.9929 43.3281 82.2272C43.8301 82.4698 44.393 82.5907 45.016 82.5907C45.6382 82.5907 46.2066 82.4698 46.7187 82.2272C47.2163 81.9958 47.6624 81.6658 48.0303 81.257C48.399 80.8406 48.6851 80.3573 48.8734 79.833ZM65.6296 71.045H68.957L63.5662 85.167H59.4363L54.0448 71.045H57.3722L61.5013 81.859L65.6296 71.045ZM76.1223 70.6815C80.5949 70.6815 83.6451 74.6677 83.0721 79.3329H72.1743C72.1743 80.5512 73.3976 82.9062 76.3026 82.9062C78.8008 82.9062 80.4755 80.6965 80.4762 80.6949L82.6958 82.4219C80.7112 84.5516 79.0866 85.5305 76.5423 85.5305C71.9963 85.5305 68.9148 82.6385 68.9148 78.106C68.9148 74.006 72.0993 70.6815 76.1215 70.6815H76.1223ZM72.1828 76.8783H80.0554C80.0312 76.6066 79.6042 73.305 76.0957 73.305C72.5865 73.305 72.2078 76.6066 72.1828 76.8783ZM85.2112 85.1662V63.9541H88.4964V85.1662H85.2112Z" fill="white"/>
</g>
<path fill-rule="evenodd" clip-rule="evenodd" d="M73.7105 13.1611C73.7322 13.2387 73.7433 13.3186 73.7435 13.399V25.8865C73.7435 26.0468 73.6997 26.2042 73.6166 26.3429C73.5335 26.4816 73.4139 26.5966 73.27 26.6763L62.4231 32.7107V44.6712C62.4231 44.9967 62.244 45.2972 61.9519 45.4611L39.3098 58.0556C39.258 58.084 39.2015 58.1022 39.1449 58.1216C39.1237 58.1284 39.1037 58.1409 39.0813 58.1466C38.923 58.1869 38.7567 58.1869 38.5984 58.1466C38.5725 58.1398 38.5489 58.1261 38.5242 58.117C38.4724 58.0988 38.4182 58.0829 38.3687 58.0556L15.7313 45.4611C15.5875 45.3813 15.468 45.2662 15.3849 45.1275C15.3018 44.9889 15.2579 44.8315 15.2578 44.6712V7.20873C15.2578 7.12679 15.2696 7.04712 15.2908 6.96972C15.2979 6.94355 15.3144 6.91965 15.3238 6.89347C15.3414 6.84567 15.3579 6.79673 15.3838 6.75234C15.4015 6.72275 15.4274 6.69885 15.4486 6.67154C15.4757 6.63512 15.5005 6.59756 15.5323 6.56569C15.5593 6.53951 15.5947 6.52017 15.6253 6.4974C15.6595 6.47009 15.6901 6.4405 15.729 6.41887L27.0494 0.121633C27.1927 0.0419419 27.3552 0 27.5206 0C27.6859 0 27.8484 0.0419419 27.9917 0.121633L39.311 6.41887H39.3134C39.351 6.44164 39.3828 6.47009 39.417 6.49627C39.4476 6.51903 39.4818 6.53951 39.5089 6.56455C39.5419 6.59756 39.5654 6.63512 39.5937 6.67154C39.6137 6.69885 39.6408 6.72275 39.6573 6.75234C39.6844 6.79787 39.6997 6.84567 39.7185 6.89347C39.728 6.91965 39.7444 6.94355 39.7515 6.97086C39.7732 7.04842 39.7843 7.12839 39.7845 7.20873V30.6074L49.2168 25.3595V13.3978C49.2168 13.3182 49.2286 13.2374 49.2498 13.1611C49.2581 13.1338 49.2734 13.1099 49.2828 13.0837C49.3016 13.0359 49.3181 12.987 49.344 12.9426C49.3617 12.913 49.3876 12.8891 49.4077 12.8618C49.4359 12.8254 49.4595 12.7878 49.4925 12.7559C49.5196 12.7298 49.5537 12.7104 49.5843 12.6877C49.6197 12.6603 49.6503 12.6308 49.688 12.6091L61.0096 6.31189C61.1529 6.23209 61.3154 6.19008 61.4808 6.19008C61.6462 6.19008 61.8086 6.23209 61.9519 6.31189L73.2712 12.6091C73.3112 12.6319 73.3419 12.6603 73.3772 12.6865C73.4067 12.7093 73.4408 12.7298 73.4679 12.7548C73.5009 12.7878 73.5244 12.8254 73.5527 12.8618C73.5739 12.8891 73.5998 12.913 73.6163 12.9426C73.6434 12.987 73.6587 13.0359 73.6776 13.0837C73.6882 13.1099 73.7035 13.1338 73.7105 13.1611ZM71.8566 25.3595V14.9753L67.8954 17.1787L62.4231 20.2232V30.6074L71.8566 25.3595ZM60.5373 44.1443V33.7532L55.1545 36.7237L39.7833 45.2004V55.6894L60.5373 44.1443ZM17.1448 8.78503V44.1443L37.8964 55.6883V45.2016L27.0553 39.2731L27.0518 39.2708L27.0471 39.2685C27.0106 39.2481 26.9799 39.2185 26.9458 39.1934C26.9163 39.1707 26.8822 39.1525 26.8562 39.1274L26.8539 39.124C26.8233 39.0956 26.8021 39.0603 26.7762 39.0284C26.7526 38.9977 26.7243 38.9715 26.7055 38.9396L26.7043 38.9362C26.6831 38.9021 26.6701 38.8611 26.6548 38.8224C26.6395 38.7883 26.6195 38.7564 26.6101 38.72C26.5983 38.6767 26.5959 38.6301 26.5912 38.5857C26.5865 38.5515 26.5771 38.5174 26.5771 38.4832V38.481V14.0329L21.1059 10.9873L17.1448 8.78503ZM27.5217 1.96312L18.0906 7.20873L27.5194 12.4543L36.9494 7.20759L27.5194 1.96312H27.5217ZM32.4264 34.7001L37.8976 31.6568V8.78503L33.9364 10.9884L28.464 14.0329V36.9047L32.4264 34.7001ZM61.4808 8.15337L52.0508 13.399L61.4808 18.6446L70.9096 13.3978L61.4808 8.15337ZM60.5373 20.2232L55.0649 17.1787L51.1038 14.9753V25.3595L56.575 28.4029L60.5373 30.6074V20.2232ZM38.8387 43.6241L52.6703 35.9942L59.5844 32.1814L50.1615 26.9392L39.3122 32.9747L29.424 38.4753L38.8387 43.6241Z" fill="white"/>
<defs>
<clipPath id="clip0">
<rect width="89" height="22.7648" fill="white" transform="translate(0 63.2346)"/>
</clipPath>
</defs>
</svg>
