<svg width="140" height="32" viewBox="0 0 140 32" fill="none" xmlns="http://www.w3.org/2000/svg">
<g clip-path="url(#clip0)">
<path d="M59.8611 12.5015V12.5L58.9656 15.7172L59.8618 12.5029L59.8611 12.5015ZM64.4716 19.4847L63.4849 19.4861L64.4723 19.4918L64.4716 19.4847ZM64.2174 24.2862H64.2188L58.3013 24.3075L64.2174 24.2862ZM65.4513 19.4897L64.4632 19.484L65.4513 19.4897ZM64.7364 23.8787L65.7674 19.8986L64.7364 23.8794V23.8787ZM86.5216 5.5481L84.6015 14.6882L86.5216 5.5481ZM81.5858 5.5481L80.1279 12.3763L81.5858 5.5481Z" fill="white"/>
<path d="M86.1919 5.13599H82.0863C81.9701 5.14051 81.8584 5.18288 81.7678 5.25679C81.6772 5.33071 81.6126 5.43224 81.5835 5.5463L78.669 19.2034C78.6398 19.3172 78.5752 19.4185 78.4848 19.4923C78.3944 19.566 78.2829 19.6084 78.1668 19.613H75.2607C72.3855 19.613 72.7184 17.6005 73.307 14.8485L73.3245 14.7653L73.6728 12.8858L73.8231 12.1128L75.1491 5.55626C75.1947 5.33012 75.0451 5.14381 74.8176 5.14381H70.6038C70.3763 5.14381 70.1501 5.3287 70.1038 5.55484L68.2062 14.6714C67.1626 19.4964 67.4393 24.0973 73.1117 24.2417L73.2761 24.2453H82.1797C82.4073 24.2453 82.6334 24.0604 82.6805 23.8342L86.5192 5.54701C86.5663 5.32088 86.4188 5.13599 86.1905 5.13599H86.1919ZM102.571 19.6614C102.622 19.6583 102.673 19.6675 102.72 19.6883C102.767 19.7091 102.808 19.7408 102.84 19.781C102.873 19.8211 102.895 19.8685 102.906 19.9191C102.917 19.9698 102.916 20.0223 102.902 20.0724L102.503 22.045L102.571 19.6614ZM102.106 24.0191L102.503 22.045L102.105 24.0198L102.106 24.0191ZM101.606 24.4344L94.0394 24.4714L101.605 24.4344H101.606Z" fill="white"/>
<path d="M91.5942 17.1188C91.5907 16.9027 91.833 16.5308 92.062 16.5308L91.5493 16.5222C91.3175 18.8689 91.5942 17.1196 91.5942 17.1196V17.1188ZM94.4175 24.469L94.3388 24.4697L94.4175 24.469ZM102.575 19.6604C102.626 19.6573 102.678 19.6665 102.724 19.6873C102.771 19.7081 102.813 19.7399 102.845 19.78C102.877 19.8202 102.9 19.8675 102.911 19.9182C102.921 19.9688 102.92 20.0214 102.907 20.0714L102.443 22.3662L102.575 19.6604ZM96.3614 24.4655H96.3446H96.3614ZM95.3536 24.4619H95.2953H95.3536ZM95.046 24.4619H94.9491H95.046ZM94.7405 24.4619H94.6563H94.7405ZM95.3024 24.4619H95.0538H95.3024Z" fill="white"/>
<path d="M96.3421 24.465L95.3589 24.4686L96.3421 24.465ZM101.609 24.433L96.3562 24.4657L101.609 24.433ZM102.101 24.0184L102.435 22.3651L102.1 24.0191L102.101 24.0184ZM94.9481 24.4615H94.7374H94.9481ZM94.335 24.4629H94.0421H94.335ZM94.6454 24.4615H94.4136H94.6454ZM34.5859 17.1682L35.2236 14.3052L34.4946 17.5778L33.7951 20.9108L34.4082 17.9952L34.5859 17.1746V17.1682ZM42.2184 5.0791H37.7097C37.5934 5.0839 37.4815 5.12613 37.3905 5.19966C37.2994 5.27319 37.2339 5.37419 37.2034 5.488L36.348 9.31028C36.3338 9.35959 36.3315 9.41162 36.3414 9.46199C36.3512 9.51237 36.3729 9.5596 36.4046 9.5997C36.4363 9.6398 36.477 9.67159 36.5234 9.69238C36.5698 9.71318 36.6204 9.72237 36.671 9.71918H41.2149C41.3312 9.71485 41.443 9.67265 41.5337 9.59886C41.6244 9.52507 41.6892 9.42362 41.7184 9.30957L42.545 5.48871C42.5942 5.26328 42.4467 5.0791 42.2191 5.0791H42.2184ZM41.2366 11.4437L39.9142 17.6304L41.2366 11.4437ZM28.1389 31.9695L31.8568 31.9994C30.7591 31.9994 28.9465 31.978 28.1375 31.9688L28.1389 31.9695ZM35.8606 11.4422L35.2285 14.3052L35.8606 11.4422Z" fill="white"/>
<path d="M40.9115 11.0355H36.3677C36.2514 11.0405 36.1396 11.0829 36.0487 11.1565C35.9578 11.2302 35.8924 11.3312 35.8621 11.4451L34.586 17.1696L34.4083 17.9903L33.1821 23.8343C33.122 24.1071 33.0491 24.377 32.9637 24.6428C32.9637 24.6428 32.1209 27.2007 30.6883 27.1716L29.2738 27.1453C29.1578 27.1478 29.0456 27.1881 28.9539 27.2602C28.8622 27.3323 28.7959 27.4324 28.7647 27.5456L27.8236 31.5564C27.8088 31.6054 27.8059 31.6573 27.815 31.7077C27.8242 31.7581 27.8452 31.8056 27.8762 31.8461C27.9072 31.8866 27.9474 31.9189 27.9934 31.9404C28.0394 31.9619 28.0898 31.9719 28.1403 31.9695L31.8597 32.0001C35.4245 32.0001 37.3039 29.9997 38.509 24.2446L41.248 11.4444C41.2957 11.2189 41.1496 11.0348 40.9207 11.0348L40.9115 11.0355ZM105.469 24.2389C105.242 24.2389 105.093 24.054 105.141 23.8279L108.56 7.61426" fill="white"/>
<path d="M110.216 23.825L111.6 16.9044L110.216 23.825ZM105.188 24.0384C105.16 23.9246 105.177 23.6487 105.225 23.4225L106.84 15.7261L105.131 23.8329C105.083 24.059 105.231 24.2439 105.459 24.2439H105.88C105.652 24.2439 105.215 24.1514 105.187 24.0306L105.188 24.0384Z" fill="white"/>
<path d="M109.949 24.1434C109.825 24.1946 109.537 24.2359 109.309 24.2359H109.73C109.958 24.2359 110.182 24.051 110.227 23.8234L110.309 23.4124C110.263 23.6386 110.08 24.0922 109.956 24.1427L109.949 24.1434ZM110.911 20.3638L111.522 17.3096L110.911 20.3638Z" fill="white"/>
<path d="M124.398 8.69924L124.587 9.48716C124.638 9.71259 124.495 9.89535 124.267 9.89606L124.398 8.69924ZM110.3 23.4074L110.909 20.3581L110.3 23.4074ZM124.211 7.885L124.397 8.69213L124.211 7.885ZM111.519 17.3045L111.687 16.4882L112.339 13.3962L111.602 16.8985L111.52 17.3038L111.519 17.3045ZM108.613 7.34668L106.856 15.7194L108.621 7.34668H108.613Z" fill="white"/>
<path d="M124.585 9.48638L124.397 8.69846L124.116 7.48955C123.747 6.03744 122.662 5.19973 120.31 5.19973L113.273 5.1912H109.477C109.249 5.1912 109.023 5.37609 108.977 5.60152L108.808 6.40509L108.555 7.61897L105.224 23.423C105.175 23.6491 105.159 23.9257 105.187 24.0388C105.214 24.1519 105.651 24.2521 105.88 24.2521H109.304C109.532 24.2521 109.821 24.2095 109.945 24.1597C110.068 24.1099 110.254 23.6619 110.298 23.4294L111.599 16.9205L112.989 10.3248C113.018 10.2114 113.083 10.1106 113.173 10.037C113.263 9.96337 113.374 9.92093 113.489 9.9159L124.264 9.91092C124.492 9.91021 124.637 9.72745 124.584 9.50203L124.585 9.48638ZM138.456 2.36093L137.627 2.36377H134.186C134.059 2.37125 133.936 2.40609 133.824 2.46596C133.712 2.52583 133.614 2.60932 133.537 2.7108L125.91 14.0177C125.781 14.2097 125.634 14.1812 125.583 13.9558L125.021 11.4633C124.991 11.3494 124.925 11.2483 124.834 11.1748C124.743 11.1012 124.631 11.0591 124.514 11.0544H119.612C119.563 11.0502 119.513 11.0588 119.467 11.0794C119.422 11.0999 119.382 11.1318 119.352 11.1721C119.322 11.2124 119.303 11.2596 119.296 11.3096C119.289 11.3595 119.294 11.4104 119.312 11.4576L121.509 19.2501C121.572 19.5161 121.576 19.7931 121.52 20.0608L120.562 23.8326C120.506 24.0566 120.646 24.2401 120.874 24.2401H125.72C125.947 24.2401 126.18 24.0573 126.237 23.8326L127.195 20.0608C127.271 19.7953 127.391 19.5445 127.548 19.3184L139.929 2.67951C140.067 2.49462 139.999 2.34528 139.764 2.34671L138.465 2.35524L138.456 2.36093ZM99.5064 12.1218C99.4783 12.3679 99.2494 12.5513 99.0148 12.5513H92.7995C92.5846 12.5513 92.4765 12.4034 92.5074 12.2207C92.5095 12.2157 92.5102 12.2107 92.513 12.2064C92.5102 12.2015 92.5102 12.1943 92.5123 12.1872L92.5404 12.0806C93.1338 10.4827 94.3432 9.43305 96.6158 9.43305C99.1742 9.43305 99.6736 10.6988 99.5001 12.1211L99.5064 12.1218ZM97.6833 4.85697C89.7052 4.85697 87.8139 9.76088 86.7535 14.7103C85.7 19.755 85.7843 24.4719 94.0405 24.4719H94.3333L94.412 24.4712H95.0412L95.3481 24.4705L96.3552 24.4669L101.608 24.4342C101.724 24.4279 101.834 24.3845 101.923 24.3103C102.012 24.2361 102.075 24.135 102.104 24.0217L102.901 20.0722C102.915 20.0221 102.916 19.9696 102.905 19.9189C102.894 19.8682 102.872 19.8209 102.839 19.7808C102.807 19.7406 102.766 19.7088 102.719 19.688C102.672 19.6672 102.621 19.658 102.57 19.6611H95.1466C92.1948 19.6611 91.3177 18.8668 91.6407 16.5322H103.506C103.601 16.529 103.693 16.498 103.771 16.4429C103.849 16.3879 103.909 16.3112 103.945 16.2221C103.959 16.1884 103.968 16.1531 103.974 16.1169C105.734 9.38967 105.229 4.85768 97.6812 4.85768L97.6833 4.85697ZM59.9715 12.0891L59.8591 12.4916C59.8591 12.493 58.963 15.708 58.963 15.708L58.0753 18.9301C58.0381 19.0436 57.9678 19.143 57.8736 19.2151C57.7794 19.2872 57.6658 19.3287 57.5479 19.334H52.806C49.2088 19.334 48.3324 16.4853 49.2088 12.2839C50.0846 7.98662 51.8017 5.31493 55.342 5.04471C60.1878 4.67492 61.1478 8.12103 59.9792 12.0976L59.9715 12.0891ZM63.2231 19.0794C63.2231 19.0794 65.4585 13.5825 65.9663 10.4073C66.6601 6.16402 64.5589 0 56.441 0C48.3696 0 44.8722 5.88525 43.528 12.2825C42.1908 18.7253 43.9493 24.3773 51.9681 24.3311L64.2161 24.2856C64.3336 24.2794 64.4463 24.237 64.5392 24.164C64.6321 24.091 64.7007 23.991 64.7358 23.8774L65.7668 19.8965C65.8244 19.6732 65.6846 19.489 65.4578 19.4883L63.4822 19.4762C63.2884 19.4748 63.1775 19.3482 63.2013 19.1797C63.2053 19.1475 63.2134 19.116 63.2252 19.0858L63.2231 19.0794Z" fill="white"/>
<path d="M103.185 15.4065C103.185 15.5585 103.063 15.6821 102.912 15.6821C102.84 15.6817 102.771 15.6525 102.72 15.6009C102.669 15.5493 102.64 15.4795 102.64 15.4065C102.64 15.2545 102.762 15.1316 102.912 15.1316C103.063 15.1316 103.185 15.2545 103.185 15.4065Z" fill="white"/>
<path d="M1.59835 8.2579C-0.630026 11.5006 -0.35262 15.7211 1.34974 19.1665L1.56043 19.5669C1.57588 19.5975 1.59344 19.6273 1.60959 19.6558C1.63768 19.7105 1.66858 19.7624 1.69808 19.8165L1.85961 20.0988L1.95231 20.2531L2.22199 20.6777C2.31079 20.8122 2.40187 20.9452 2.49518 21.0766L2.54926 21.1498C2.63059 21.2628 2.7137 21.3745 2.79857 21.4848L2.89198 21.6057L3.12233 21.8916L3.21012 21.9982C3.31485 22.1235 3.42161 22.247 3.53036 22.3687C3.5416 22.3808 3.54441 22.3829 3.54932 22.39C3.65626 22.5076 3.76489 22.6235 3.87519 22.7378L3.98053 22.8445L4.24038 23.1026L4.34713 23.205C4.46441 23.3166 4.5831 23.4183 4.70319 23.5335C4.72918 23.557 4.75025 23.5741 4.77061 23.5918L5.09367 23.8763L5.23413 23.9844L5.50381 24.1977L5.64778 24.3087L5.94977 24.522L6.06003 24.6016C6.07056 24.6088 6.07969 24.6159 6.09022 24.623C6.18714 24.6905 6.28546 24.7552 6.38519 24.82L6.5116 24.9053C6.66361 25.0031 6.81719 25.0984 6.9723 25.1912L7.09872 25.2637L7.44425 25.46C7.51448 25.4941 7.57206 25.5268 7.63527 25.5595L7.88248 25.6897L7.93866 25.7181L8.03979 25.7679L8.43167 25.9514L8.51454 25.989C8.66581 26.0558 8.81823 26.1198 8.97174 26.181L9.0827 26.2251L9.51391 26.3873L9.56798 26.4065C9.72736 26.4626 9.88775 26.5157 10.0491 26.5658L10.1649 26.6013C10.3293 26.6511 10.4922 26.7115 10.6615 26.7435C21.4389 28.7347 24.5697 20.1856 24.5697 20.1856C21.9403 23.6544 17.2658 24.5689 12.8512 23.5506C12.6841 23.5122 12.5211 23.4596 12.3575 23.4105L12.2346 23.3728C12.0753 23.3232 11.9168 23.2711 11.7591 23.2164L11.6938 23.1929C11.5533 23.1426 11.4135 23.0902 11.2746 23.0357L11.1573 22.9888C11.0049 22.9277 10.8539 22.8644 10.705 22.7982L10.6137 22.7577L10.2324 22.5778L10.1221 22.5244L9.82713 22.3723L9.63049 22.2677C9.5111 22.1966 9.39381 22.1355 9.27653 22.0672L9.15714 21.9996C9.0021 21.9068 8.84851 21.8115 8.69644 21.7138C8.6543 21.6867 8.61357 21.6569 8.57213 21.6299L8.24416 21.4165L8.13882 21.3411L7.82981 21.1136L7.41264 20.795L7.28764 20.694L6.9393 20.3968C6.92736 20.3861 6.91401 20.3754 6.90137 20.3641C6.77766 20.2539 6.65591 20.1415 6.53618 20.027L6.43294 19.9274L6.16958 19.6664L6.06635 19.5619L5.74329 19.2163C5.73809 19.2104 5.7327 19.2047 5.72714 19.1992C5.61571 19.0755 5.5066 18.9496 5.39987 18.8216L5.31419 18.7185L5.07822 18.4234L4.99184 18.3146L4.71935 17.9477C2.26413 14.557 1.38205 9.87997 3.34426 6.0392L1.59835 8.2579ZM8.52929 5.53999C6.91753 7.88811 7.00531 11.032 8.26242 13.5159C8.47292 13.9333 8.71108 14.3358 8.97525 14.7206C9.21684 15.0712 9.48441 15.4886 9.80395 15.7695C9.9209 15.8996 10.0415 16.0262 10.1656 16.1492C10.1969 16.1816 10.2288 16.2133 10.2611 16.2445L10.6306 16.6001C10.6355 16.6044 10.6404 16.6093 10.6446 16.6143C10.7886 16.7423 10.9255 16.8618 11.08 16.9791L11.1783 17.0502C11.3259 17.1654 11.4765 17.2766 11.6299 17.3837C11.6348 17.3873 11.6383 17.3909 11.644 17.3937C11.7121 17.4413 11.7809 17.4861 11.8497 17.5309C11.8827 17.5523 11.9143 17.5757 11.9481 17.5964C12.0583 17.6675 12.1693 17.7372 12.2823 17.804L12.3294 17.8325L12.6244 17.9996C12.6595 18.0195 12.6946 18.0366 12.7297 18.055L12.9369 18.1631C12.9474 18.1681 12.958 18.1731 12.9685 18.1774C13.1107 18.2484 13.2545 18.3162 13.3997 18.3807C13.4313 18.395 13.4699 18.407 13.4952 18.4206L13.8492 18.5656L14.0009 18.6225C14.1083 18.6631 14.2165 18.6936 14.3253 18.7363L14.4658 18.7839C14.6203 18.8337 14.7748 18.8942 14.9363 18.9212C23.2585 20.3171 25.1786 13.8295 25.1786 13.8295C23.4467 16.3555 20.094 17.5601 16.5144 16.6193C16.3562 16.5771 16.1991 16.5311 16.0431 16.4813C15.9954 16.4671 15.949 16.4507 15.9013 16.4351C15.7908 16.3987 15.681 16.3603 15.5719 16.3199L15.423 16.263C15.3039 16.2169 15.1857 16.1685 15.0683 16.1179L14.9588 16.0696C14.8125 16.0051 14.6678 15.9371 14.5248 15.8655C14.451 15.8299 14.3794 15.7908 14.3141 15.7531L14.1877 15.6877C14.0951 15.6368 14.0033 15.5844 13.9124 15.5306L13.8464 15.4929C13.734 15.426 13.623 15.3506 13.5128 15.2795C13.4791 15.2582 13.446 15.234 13.4123 15.2113L13.2031 15.074C13.05 14.9673 12.9011 14.8607 12.7536 14.7412L12.6525 14.6609C11.0863 13.4093 9.84328 11.6969 9.25336 9.75695C8.63534 7.74447 8.76175 5.48523 9.83977 3.65195L8.52929 5.53999ZM14.3344 3.48484C13.3842 4.90709 13.2908 6.65858 13.9503 8.22234C14.6526 9.8821 16.0698 11.1842 17.7329 11.8014L17.9393 11.874L18.0306 11.9024L18.327 11.9892C22.9221 12.888 24.168 9.60192 24.5072 9.11836C23.4151 10.7099 21.5807 11.0917 19.3299 10.5385C19.1456 10.4908 18.9637 10.4341 18.7849 10.3685C18.5647 10.2893 18.3488 10.1984 18.1381 10.0962C17.7378 9.90202 17.3571 9.66592 17.0039 9.3957C14.9897 7.84829 13.7382 4.89571 15.0529 2.4978" fill="white"/>
</g>
<defs>
<clipPath id="clip0">
<rect width="140" height="32" fill="white"/>
</clipPath>
</defs>
</svg>
